<svg width="960" height="280" viewBox="0 0 960 280" fill="none" xmlns="http://www.w3.org/2000/svg" role="img" aria-labelledby="title desc">
  <title id="title">PayNest Logo</title>
  <desc id="desc">PayNest logo mark with a stylized nest and currency symbol beside the wordmark.</desc>

  <defs>
    <linearGradient id="badgeGradient" x1="40" y1="28" x2="224" y2="252" gradientUnits="userSpaceOnUse">
      <stop stop-color="#0EA5A3"/>
      <stop offset="1" stop-color="#0B6E6C"/>
    </linearGradient>
    <linearGradient id="ringGradient" x1="72" y1="88" x2="188" y2="208" gradientUnits="userSpaceOnUse">
      <stop stop-color="#F4D35E"/>
      <stop offset="1" stop-color="#E8B93C"/>
    </linearGradient>
  </defs>

  <rect x="24" y="24" width="216" height="232" rx="56" fill="url(#badgeGradient)"/>

  <path d="M86 164C98 133 122 116 152 116C182 116 206 133 218 164" stroke="#F8FAFC" stroke-width="16" stroke-linecap="round"/>
  <path d="M96 184C108 157 127 144 152 144C177 144 196 157 208 184" stroke="#F8FAFC" stroke-width="12" stroke-linecap="round"/>
  <path d="M108 200C118 179 133 168 152 168C171 168 186 179 196 200" stroke="#F8FAFC" stroke-width="10" stroke-linecap="round"/>

  <circle cx="152" cy="96" r="42" fill="url(#ringGradient)"/>
  <path d="M152 72V122" stroke="#0B6E6C" stroke-width="10" stroke-linecap="round"/>
  <path d="M170 84C164 78 158 76 152 76C142 76 134 81 134 89C134 97 140 101 152 104C164 107 170 111 170 119C170 127 162 132 152 132C143 132 136 129 129 123" stroke="#0B6E6C" stroke-width="10" stroke-linecap="round" stroke-linejoin="round"/>

  <g fill="#0F172A">
    <path d="M318.8 191V89.2H369.2C390.8 89.2 405.9 102.7 405.9 123.6C405.9 144.5 390.8 158 369.2 158H344V191H318.8ZM344 136.4H365.7C374.7 136.4 380.6 131.5 380.6 123.6C380.6 115.8 374.7 110.8 365.7 110.8H344V136.4Z"/>
    <path d="M449.2 192.8C426.5 192.8 410.5 177.6 410.5 155.8C410.5 134.1 426.5 118.8 449.2 118.8C460.6 118.8 470.6 123.6 476.8 132V120.8H500.4V191H476.8V179.8C470.6 188.1 460.6 192.8 449.2 192.8ZM455.5 171.9C467.4 171.9 476.8 164.8 476.8 155.8C476.8 146.9 467.4 139.8 455.5 139.8C443.4 139.8 434.1 146.9 434.1 155.8C434.1 164.8 443.4 171.9 455.5 171.9Z"/>
    <path d="M514.7 191V120.8H538.3V133.2C543.5 124.4 552.8 118.8 564.2 118.8C582.8 118.8 594.8 131.3 594.8 151.1V191H571.2V154.8C571.2 145.1 565.5 139.8 556.7 139.8C546.8 139.8 538.3 146.4 538.3 157.6V191H514.7Z"/>
    <path d="M638 192.8C614.1 192.8 597.9 177.7 597.9 155.8C597.9 134.1 614.1 118.8 636.9 118.8C659.5 118.8 675.5 133.4 675.5 154.2C675.5 157.5 675.2 161.1 674.5 164.2H621.2C623.7 171 629.4 174.8 638.8 174.8C645.3 174.8 650.8 172.3 654.1 167.9H673.1C667.3 183.3 654 192.8 638 192.8ZM621.5 149.6H651.6C649.2 142.7 643.9 138.9 636.8 138.9C629.3 138.9 624 142.7 621.5 149.6Z"/>
    <path d="M719.8 192.8C699.6 192.8 684.9 182.4 682.8 166.8H705.3C706.8 172.4 711.8 175.3 719.9 175.3C727.6 175.3 731.8 173.3 731.8 169.8C731.8 166.2 728.2 165 715 162.5C695.7 159 685.7 151.9 685.7 139.9C685.7 126.8 699.1 118.8 718.5 118.8C738.4 118.8 751.5 128.8 753.4 143.4H731.6C730.2 138.6 725.9 136 718.7 136C711.8 136 707.8 138.2 707.8 141.6C707.8 144.8 710.9 146.3 723.6 148.6C743.4 152.1 754.5 158.2 754.5 171.2C754.5 184.7 740.6 192.8 719.8 192.8Z"/>
    <path d="M796.8 192.8C778.9 192.8 768.9 183.5 768.9 166V140.4H755V120.8H768.9V96.4H792.5V120.8H812.2V140.4H792.5V161.7C792.5 168.3 795.7 171.4 801.7 171.4H812.2V191H796.8V192.8Z"/>
  </g>
</svg>
